<svg width="1024" height="1024" viewBox="0 0 1024 1024" fill="none" xmlns="http://www.w3.org/2000/svg">
  <defs>
    <linearGradient id="bgGlow" x1="0" y1="0" x2="1" y2="1">
      <stop offset="0%" stop-color="#E8F6FF"/>
      <stop offset="100%" stop-color="#D7ECFF"/>
    </linearGradient>
    <linearGradient id="blueA" x1="0" y1="0" x2="1" y2="1">
      <stop offset="0%" stop-color="#4ED3FF"/>
      <stop offset="100%" stop-color="#0078D6"/>
    </linearGradient>
    <linearGradient id="steel" x1="0" y1="0" x2="1" y2="1">
      <stop offset="0%" stop-color="#F2F5F8"/>
      <stop offset="100%" stop-color="#AAB4BF"/>
    </linearGradient>
    <linearGradient id="label" x1="0" y1="0" x2="1" y2="0">
      <stop offset="0%" stop-color="#0A2740"/>
      <stop offset="100%" stop-color="#123A5A"/>
    </linearGradient>
    <filter id="softShadow" x="-20%" y="-20%" width="140%" height="140%" color-interpolation-filters="sRGB">
      <feDropShadow dx="0" dy="10" stdDeviation="10" flood-opacity="0.25"/>
    </filter>
  </defs>

  <rect width="1024" height="1024" fill="#F4F5F7"/>
  <ellipse cx="512" cy="520" rx="330" ry="250" fill="url(#bgGlow)"/>

  <path d="M120 560C220 380 410 300 640 330" stroke="#0B4C8C" stroke-width="18" stroke-linecap="round" opacity="0.9"/>
  <path d="M160 590C260 410 430 345 660 370" stroke="#9FB3C8" stroke-width="12" stroke-linecap="round" opacity="0.75"/>

  <g filter="url(#softShadow)">
    <text x="290" y="470" font-family="Segoe UI, Arial, sans-serif" font-weight="900" font-size="245" fill="url(#steel)">A</text>
    <text x="500" y="470" font-family="Segoe UI, Arial, sans-serif" font-weight="900" font-size="245" fill="url(#blueA)">R</text>
    <text x="280" y="470" font-family="Segoe UI, Arial, sans-serif" font-weight="900" font-size="245" fill="none" stroke="#0F2C46" stroke-width="10">A</text>
    <text x="490" y="470" font-family="Segoe UI, Arial, sans-serif" font-weight="900" font-size="245" fill="none" stroke="#0F2C46" stroke-width="10">R</text>
  </g>

  <g transform="translate(462 454)" filter="url(#softShadow)">
    <polygon points="50,0 100,28 50,56 0,28" fill="#68D9FF"/>
    <polygon points="0,28 50,56 50,114 0,86" fill="#0E88D6"/>
    <polygon points="100,28 50,56 50,114 100,86" fill="#0966B8"/>
    <polyline points="0,28 50,0 100,28 50,56 0,28" fill="none" stroke="#D8F6FF" stroke-width="4"/>
  </g>

  <g filter="url(#softShadow)">
    <rect x="180" y="650" width="664" height="136" rx="26" fill="url(#label)"/>
    <text x="219" y="748" font-family="Segoe UI, Arial, sans-serif" font-style="italic" font-weight="900" font-size="92" fill="#EAF4FF">PRINT</text>
    <text x="530" y="748" font-family="Segoe UI, Arial, sans-serif" font-style="italic" font-weight="900" font-size="92" fill="url(#blueA)">LAB</text>
  </g>

  <g>
    <rect x="275" y="794" width="474" height="74" rx="20" fill="#0B243A"/>
    <text x="512" y="844" text-anchor="middle" font-family="Segoe UI, Arial, sans-serif" font-weight="800" font-size="45" letter-spacing="2" fill="#DCEAFF">3D PRINTING PRODUCTS</text>
  </g>

  <g filter="url(#softShadow)">
    <rect x="475" y="192" width="74" height="122" rx="14" fill="#1F3648"/>
    <rect x="458" y="165" width="108" height="42" rx="12" fill="#0E2230"/>
    <rect x="494" y="304" width="36" height="34" rx="8" fill="#0E2230"/>
    <circle cx="512" cy="346" r="7" fill="#0E2230"/>
    <path d="M512 353V448" stroke="#1CC2FF" stroke-width="5" stroke-linecap="round"/>
  </g>

  <g opacity="0.9">
    <rect x="740" y="422" width="16" height="16" rx="3" fill="#25B4FF"/>
    <rect x="770" y="447" width="18" height="18" rx="3" fill="#1FA8F2"/>
    <rect x="798" y="476" width="20" height="20" rx="3" fill="#1797E5"/>
    <rect x="824" y="508" width="22" height="22" rx="4" fill="#1187DA"/>
    <rect x="850" y="544" width="24" height="24" rx="4" fill="#0D79D1"/>
    <rect x="874" y="582" width="18" height="18" rx="3" fill="#0B6CC7"/>
  </g>
</svg>
