<svg width="72" height="72" viewBox="0 0 72 72" fill="none" xmlns="http://www.w3.org/2000/svg">
  <defs>
    <linearGradient id="apl-mark-grad" x1="8" y1="8" x2="64" y2="64" gradientUnits="userSpaceOnUse">
      <stop stop-color="#F59E0B"/>
      <stop offset="1" stop-color="#14B8A6"/>
    </linearGradient>
    <linearGradient id="apl-mark-top" x1="36" y1="17" x2="36" y2="34" gradientUnits="userSpaceOnUse">
      <stop stop-color="#FFFFFF" stop-opacity="0.96"/>
      <stop offset="1" stop-color="#FFFFFF" stop-opacity="0.78"/>
    </linearGradient>
    <linearGradient id="apl-mark-left" x1="18" y1="28" x2="36" y2="54" gradientUnits="userSpaceOnUse">
      <stop stop-color="#FFFFFF" stop-opacity="0.82"/>
      <stop offset="1" stop-color="#FFFFFF" stop-opacity="0.62"/>
    </linearGradient>
    <linearGradient id="apl-mark-right" x1="54" y1="28" x2="36" y2="54" gradientUnits="userSpaceOnUse">
      <stop stop-color="#FFFFFF" stop-opacity="0.9"/>
      <stop offset="1" stop-color="#FFFFFF" stop-opacity="0.68"/>
    </linearGradient>
  </defs>

  <rect x="4" y="4" width="64" height="64" rx="18" fill="url(#apl-mark-grad)"/>
  <rect x="5" y="5" width="62" height="62" rx="17" stroke="white" stroke-opacity="0.22"/>
  <path d="M36 17L54 27L36 37L18 27L36 17Z" fill="url(#apl-mark-top)"/>
  <path d="M18 27L36 37V56L18 46V27Z" fill="url(#apl-mark-left)"/>
  <path d="M54 27L36 37V56L54 46V27Z" fill="url(#apl-mark-right)"/>
  <path d="M36 22L47 28.2L36 34.4L25 28.2L36 22Z" stroke="white" stroke-width="1.5" stroke-opacity="0.7"/>
  <path d="M25 28.2L36 34.4L47 28.2" stroke="white" stroke-width="1.5" stroke-opacity="0.55"/>
  <path d="M36 34.4V51" stroke="white" stroke-width="1.5" stroke-opacity="0.55"/>
</svg>
