<svg xmlns="http://www.w3.org/2000/svg" viewBox="0 0 128 128" role="img" aria-label="AR Print Lab">
  <defs>
    <linearGradient id="bgGrad" x1="0" y1="0" x2="1" y2="1">
      <stop offset="0%" stop-color="#f59e0b" />
      <stop offset="100%" stop-color="#14b8a6" />
    </linearGradient>
    <linearGradient id="topFace" x1="64" y1="28" x2="64" y2="58">
      <stop offset="0%" stop-color="#ffffff" stop-opacity="0.96" />
      <stop offset="100%" stop-color="#ffffff" stop-opacity="0.78" />
    </linearGradient>
    <linearGradient id="leftFace" x1="34" y1="48" x2="64" y2="92">
      <stop offset="0%" stop-color="#ffffff" stop-opacity="0.82" />
      <stop offset="100%" stop-color="#ffffff" stop-opacity="0.62" />
    </linearGradient>
    <linearGradient id="rightFace" x1="94" y1="48" x2="64" y2="92">
      <stop offset="0%" stop-color="#ffffff" stop-opacity="0.9" />
      <stop offset="100%" stop-color="#ffffff" stop-opacity="0.68" />
    </linearGradient>
  </defs>

  <rect x="8" y="8" width="112" height="112" rx="30" fill="url(#bgGrad)" />
  <rect x="9" y="9" width="110" height="110" rx="29" fill="none" stroke="#ffffff" stroke-opacity="0.22" />

  <path d="M64 28 L94 45 L64 62 L34 45 Z" fill="url(#topFace)" />
  <path d="M34 45 L64 62 V94 L34 77 Z" fill="url(#leftFace)" />
  <path d="M94 45 L64 62 V94 L94 77 Z" fill="url(#rightFace)" />

  <g fill="none" stroke="#ffffff" stroke-width="2.6" stroke-linejoin="round" stroke-linecap="round" opacity="0.68">
    <path d="M64 36 L82 46.2 L64 56.4 L46 46.2 Z" />
    <path d="M46 46.2 L64 56.4 L82 46.2" opacity="0.8" />
    <path d="M64 56.4 V84" opacity="0.78" />
  </g>
</svg>
