<svg id="svg" version="1.1" xmlns="http://www.w3.org/2000/svg" xmlns:xlink="http://www.w3.org/1999/xlink" width="400" height="266.6666666666667" viewBox="0, 0, 400,266.6666666666667"><g id="svgg"><path id="path0" d="M194.596 42.895 C 194.990 42.955,195.635 42.955,196.029 42.895 C 196.423 42.835,196.100 42.786,195.313 42.786 C 194.525 42.786,194.202 42.835,194.596 42.895 M189.697 44.857 L 188.932 45.703 189.779 44.938 C 190.244 44.518,190.625 44.137,190.625 44.092 C 190.625 43.891,190.410 44.068,189.697 44.857 M195.833 52.344 C 195.833 52.633,196.007 52.865,196.224 52.865 C 196.441 52.865,196.615 52.633,196.615 52.344 C 196.615 52.054,196.441 51.823,196.224 51.823 C 196.007 51.823,195.833 52.054,195.833 52.344 M198.438 52.214 C 198.438 52.428,198.613 52.604,198.828 52.604 C 199.043 52.604,199.219 52.428,199.219 52.214 C 199.219 51.999,199.043 51.823,198.828 51.823 C 198.613 51.823,198.438 51.999,198.438 52.214 M201.042 52.344 C 201.042 52.679,201.174 52.864,201.367 52.799 C 201.546 52.740,201.693 52.535,201.693 52.344 C 201.693 52.153,201.546 51.948,201.367 51.888 C 201.174 51.823,201.042 52.008,201.042 52.344 M193.530 52.458 C 193.579 52.697,193.737 52.886,193.880 52.878 C 194.267 52.858,194.196 52.275,193.790 52.140 C 193.571 52.067,193.474 52.186,193.530 52.458 M203.385 52.459 C 203.385 53.081,203.861 53.175,204.163 52.611 C 204.404 52.161,204.367 52.083,203.915 52.083 C 203.624 52.083,203.385 52.252,203.385 52.459 M191.252 52.702 C 191.032 53.277,191.325 53.571,191.723 53.173 C 191.958 52.938,191.959 52.792,191.727 52.561 C 191.496 52.329,191.383 52.363,191.252 52.702 M208.324 53.006 C 208.079 53.301,208.068 53.484,208.281 53.698 C 208.664 54.080,209.403 53.500,209.201 52.976 C 209.017 52.496,208.740 52.505,208.324 53.006 M188.658 53.148 C 188.562 53.303,188.608 53.556,188.762 53.710 C 189.087 54.035,189.932 53.479,189.695 53.095 C 189.497 52.775,188.869 52.806,188.658 53.148 M186.458 53.761 C 186.458 54.383,186.934 54.477,187.236 53.914 C 187.477 53.463,187.440 53.385,186.988 53.385 C 186.697 53.385,186.458 53.554,186.458 53.761 M196.558 61.651 C 197.315 61.703,198.487 61.703,199.162 61.649 C 199.838 61.596,199.219 61.553,197.786 61.553 C 196.354 61.554,195.801 61.598,196.558 61.651 M175.847 68.359 C 175.850 68.932,175.903 69.136,175.965 68.812 C 176.028 68.488,176.025 68.019,175.960 67.770 C 175.895 67.521,175.844 67.786,175.847 68.359 M197.541 69.589 C 196.384 71.241,198.449 73.183,200.015 71.916 C 200.764 71.309,200.825 69.877,200.124 69.364 C 199.354 68.802,198.010 68.919,197.541 69.589 M212.760 74.870 C 213.246 75.371,213.702 75.781,213.774 75.781 C 213.846 75.781,213.507 75.371,213.021 74.870 C 212.535 74.368,212.079 73.958,212.007 73.958 C 211.936 73.958,212.275 74.368,212.760 74.870 M196.980 77.967 C 196.903 78.167,196.887 78.782,196.944 79.335 C 197.040 80.267,197.051 80.248,197.092 79.074 C 197.127 78.048,197.212 77.838,197.540 77.964 C 197.771 78.053,197.876 78.009,197.785 77.862 C 197.555 77.491,197.142 77.545,196.980 77.967 M181.079 80.078 C 181.080 81.224,181.126 81.660,181.181 81.048 C 181.236 80.435,181.235 79.498,181.179 78.964 C 181.123 78.431,181.078 78.932,181.079 80.078 M216.738 82.292 C 216.738 82.936,216.788 83.200,216.850 82.878 C 216.913 82.555,216.913 82.028,216.850 81.706 C 216.788 81.383,216.738 81.647,216.738 82.292 M173.016 85.026 C 173.017 86.745,173.059 87.414,173.110 86.513 C 173.161 85.612,173.160 84.206,173.109 83.388 C 173.057 82.570,173.016 83.307,173.016 85.026 M181.068 83.854 C 181.068 84.642,181.116 84.964,181.176 84.570 C 181.236 84.176,181.236 83.532,181.176 83.138 C 181.116 82.744,181.068 83.066,181.068 83.854 M198.477 86.762 C 198.455 87.287,198.291 87.776,198.112 87.848 C 197.857 87.951,197.859 87.984,198.120 88.000 C 198.563 88.028,198.762 87.453,198.626 86.545 C 198.531 85.911,198.510 85.941,198.477 86.762 M207.031 92.269 C 207.031 92.314,207.412 92.695,207.878 93.115 L 208.724 93.880 207.959 93.034 C 207.246 92.245,207.031 92.068,207.031 92.269 M195.703 95.861 C 193.043 96.223,192.496 96.666,193.945 97.285 C 197.831 98.947,200.622 98.993,204.503 97.460 C 207.406 96.314,200.971 95.144,195.703 95.861 M168.295 100.651 C 168.298 101.224,168.351 101.428,168.413 101.104 C 168.476 100.780,168.473 100.311,168.408 100.062 C 168.343 99.813,168.292 100.078,168.295 100.651 M218.896 113.658 C 218.504 116.273,216.281 119.366,213.075 121.758 L 211.696 122.786 211.636 125.409 C 211.542 129.491,209.509 132.784,205.744 134.950 C 204.955 135.405,204.526 135.977,203.648 137.748 C 195.598 153.984,179.444 172.755,169.589 177.323 C 167.812 178.147,167.695 178.005,171.810 180.007 C 177.497 182.775,177.670 182.821,182.591 182.889 L 186.849 182.947 189.714 184.146 C 193.441 185.707,194.729 186.015,196.154 185.686 C 196.765 185.545,198.181 185.427,199.299 185.423 C 200.725 185.419,202.281 185.170,204.507 184.591 C 208.441 183.568,211.799 183.449,214.880 184.225 L 216.869 184.725 218.656 184.136 C 221.247 183.281,225.660 181.106,229.667 178.709 L 233.163 176.618 233.105 170.796 C 233.052 165.456,233.707 157.216,234.509 153.125 C 234.682 152.246,235.826 143.440,236.167 140.365 C 236.749 135.123,236.750 134.708,236.177 130.763 C 235.611 126.859,235.685 124.272,236.360 124.398 C 236.644 124.451,236.609 123.858,236.157 120.917 L 235.870 119.048 234.537 118.618 C 232.225 117.872,222.334 114.026,220.722 113.247 C 219.873 112.836,219.154 112.500,219.124 112.500 C 219.094 112.500,218.991 113.021,218.896 113.658 M153.111 123.372 L 152.214 124.349 153.190 123.452 C 154.099 122.616,154.286 122.396,154.088 122.396 C 154.044 122.396,153.605 122.835,153.111 123.372 M175.842 130.469 C 175.842 130.970,175.895 131.175,175.961 130.924 C 176.026 130.674,176.026 130.264,175.961 130.013 C 175.895 129.762,175.842 129.967,175.842 130.469 M174.740 140.073 C 174.740 140.327,175.752 141.275,175.861 141.123 C 175.903 141.064,175.668 140.756,175.339 140.439 C 175.009 140.122,174.740 139.957,174.740 140.073 M179.948 142.188 C 179.948 142.617,180.045 142.969,180.163 142.969 C 180.282 142.969,180.327 142.617,180.264 142.188 C 180.201 141.758,180.104 141.406,180.049 141.406 C 179.993 141.406,179.948 141.758,179.948 142.188 M180.518 148.338 C 180.760 148.410,181.013 148.726,181.081 149.039 C 181.185 149.517,181.198 149.504,181.162 148.961 C 181.133 148.521,180.952 148.296,180.599 148.260 C 180.224 148.222,180.201 148.244,180.518 148.338 M236.248 149.722 C 236.280 150.141,236.383 150.437,236.477 150.379 C 236.652 150.271,236.483 148.958,236.294 148.958 C 236.236 148.958,236.216 149.302,236.248 149.722 M149.805 150.961 C 150.055 151.026,150.465 151.026,150.716 150.961 C 150.967 150.895,150.762 150.842,150.260 150.842 C 149.759 150.842,149.554 150.895,149.805 150.961 M252.282 150.965 C 252.606 151.028,253.074 151.025,253.323 150.960 C 253.572 150.895,253.307 150.844,252.734 150.847 C 252.161 150.850,251.958 150.903,252.282 150.965 M189.063 156.089 C 189.063 156.144,189.355 156.245,189.714 156.314 C 190.072 156.382,190.365 156.337,190.365 156.214 C 190.365 156.091,190.072 155.990,189.714 155.990 C 189.355 155.990,189.063 156.035,189.063 156.089 M180.587 167.513 L 179.557 168.620 180.664 167.590 C 181.693 166.633,181.891 166.406,181.693 166.406 C 181.651 166.406,181.153 166.904,180.587 167.513 M262.234 177.649 C 262.197 181.552,255.841 185.226,241.634 189.554 C 214.441 197.840,196.037 199.790,181.089 195.969 C 176.835 194.881,174.176 193.809,173.837 193.043 C 173.663 192.649,173.264 192.423,172.535 192.304 C 153.114 189.157,138.162 183.385,136.410 178.360 C 136.085 177.425,136.010 177.426,133.080 178.383 C 114.009 184.615,115.249 202.344,135.156 208.060 C 137.736 208.801,148.154 210.884,154.167 211.861 C 160.857 212.949,174.734 212.684,188.211 211.211 L 194.852 210.486 201.137 211.098 C 213.577 212.309,216.920 212.531,224.870 212.677 C 245.221 213.050,265.412 209.122,274.615 202.999 C 286.163 195.315,279.688 180.839,263.086 177.226 C 262.321 177.060,262.239 177.101,262.234 177.649 M182.747 184.038 C 183.070 184.100,183.597 184.100,183.919 184.038 C 184.242 183.976,183.978 183.925,183.333 183.925 C 182.689 183.925,182.425 183.976,182.747 184.038 M209.570 185.084 C 210.036 185.142,210.798 185.142,211.263 185.084 C 211.729 185.026,211.348 184.979,210.417 184.979 C 209.486 184.979,209.105 185.026,209.570 185.084 M196.897 186.822 C 197.133 187.046,198.865 187.138,199.479 186.960 C 199.928 186.829,199.611 186.763,198.459 186.745 C 197.540 186.730,196.837 186.765,196.897 186.822 M181.836 188.207 C 182.230 188.267,182.874 188.267,183.268 188.207 C 183.662 188.148,183.340 188.099,182.552 188.099 C 181.764 188.099,181.442 188.148,181.836 188.207 M190.134 188.845 C 190.118 189.227,189.958 189.599,189.779 189.671 C 189.524 189.774,189.525 189.807,189.787 189.823 C 190.200 189.849,190.449 189.250,190.287 188.622 C 190.204 188.304,190.155 188.377,190.134 188.845 M207.617 188.461 C 207.868 188.526,208.278 188.526,208.529 188.461 C 208.779 188.395,208.574 188.342,208.073 188.342 C 207.572 188.342,207.367 188.395,207.617 188.461 M177.025 192.379 C 177.638 192.434,178.575 192.433,179.108 192.377 C 179.642 192.321,179.141 192.276,177.995 192.277 C 176.849 192.278,176.413 192.324,177.025 192.379 M195.768 196.805 C 196.377 196.860,197.373 196.860,197.982 196.805 C 198.590 196.750,198.092 196.706,196.875 196.706 C 195.658 196.706,195.160 196.750,195.768 196.805 " stroke="none" fill="#cc4214" fill-rule="evenodd"></path><path id="path1" d="M197.656 42.508 C 197.155 42.644,195.747 42.845,194.527 42.954 C 193.308 43.063,191.948 43.340,191.506 43.568 C 189.311 44.703,185.655 50.478,185.670 52.785 L 185.677 53.878 183.789 54.868 C 178.535 57.625,176.311 61.760,175.904 69.531 C 175.774 72.025,175.591 73.152,175.126 74.349 C 173.700 78.012,173.379 79.823,173.207 85.156 L 173.043 90.234 171.635 92.839 C 168.317 98.974,168.019 100.103,168.853 103.359 C 169.683 106.599,169.506 107.036,166.582 108.962 C 163.100 111.255,160.570 114.586,159.999 117.630 C 159.860 118.369,159.693 118.522,158.761 118.760 C 152.933 120.248,149.497 124.154,147.316 131.771 C 146.151 135.840,144.742 140.895,144.013 143.620 C 143.707 144.766,143.247 145.938,142.991 146.224 C 142.317 146.978,142.150 147.620,142.472 148.221 C 142.691 148.632,142.580 149.389,141.968 151.653 C 139.974 159.026,137.705 168.198,136.969 171.865 C 136.030 176.543,136.166 176.212,135.088 176.443 C 113.378 181.109,108.556 204.760,127.692 212.726 C 136.442 216.369,160.588 218.309,178.125 216.779 C 184.443 216.228,197.933 216.022,204.297 216.381 C 255.580 219.267,275.881 216.112,282.079 204.293 C 288.025 192.954,280.363 180.666,264.673 176.379 L 262.029 175.657 261.354 173.310 C 259.399 166.505,255.716 153.559,255.316 152.083 C 255.064 151.152,254.882 149.934,254.912 149.375 C 254.949 148.673,254.810 148.192,254.458 147.813 C 254.139 147.469,253.351 145.086,252.341 141.406 C 249.039 129.377,248.281 127.267,246.138 124.153 C 244.825 122.245,242.191 119.986,240.073 118.954 L 238.110 117.997 237.793 116.580 C 237.318 114.460,235.926 112.349,233.470 110.026 L 231.267 107.943 231.529 106.641 C 232.765 100.490,232.236 98.206,228.509 93.620 C 226.024 90.562,225.623 89.620,225.237 85.933 C 225.065 84.288,224.646 81.888,224.306 80.599 C 223.966 79.310,223.341 76.762,222.916 74.938 C 219.882 61.889,217.236 56.992,211.538 53.877 L 209.924 52.995 209.521 51.214 C 208.157 45.182,202.664 41.151,197.656 42.508 M196.615 52.344 C 196.615 52.633,196.441 52.865,196.224 52.865 C 196.007 52.865,195.833 52.633,195.833 52.344 C 195.833 52.054,196.007 51.823,196.224 51.823 C 196.441 51.823,196.615 52.054,196.615 52.344 M199.219 52.214 C 199.219 52.428,199.043 52.604,198.828 52.604 C 198.613 52.604,198.438 52.428,198.438 52.214 C 198.438 51.999,198.613 51.823,198.828 51.823 C 199.043 51.823,199.219 51.999,199.219 52.214 M201.693 52.344 C 201.693 52.535,201.546 52.740,201.367 52.799 C 201.174 52.864,201.042 52.679,201.042 52.344 C 201.042 52.008,201.174 51.823,201.367 51.888 C 201.546 51.948,201.693 52.153,201.693 52.344 M194.141 52.561 C 194.141 53.032,193.631 52.946,193.530 52.458 C 193.474 52.186,193.571 52.067,193.790 52.140 C 193.983 52.204,194.141 52.394,194.141 52.561 M204.163 52.611 C 203.861 53.175,203.385 53.081,203.385 52.459 C 203.385 52.252,203.624 52.083,203.915 52.083 C 204.367 52.083,204.404 52.161,204.163 52.611 M191.723 53.173 C 191.325 53.571,191.032 53.277,191.252 52.702 C 191.383 52.363,191.496 52.329,191.727 52.561 C 191.959 52.792,191.958 52.938,191.723 53.173 M209.201 52.976 C 209.403 53.500,208.664 54.080,208.281 53.698 C 208.068 53.484,208.079 53.301,208.324 53.006 C 208.740 52.505,209.017 52.496,209.201 52.976 M189.695 53.095 C 189.932 53.479,189.087 54.035,188.762 53.710 C 188.608 53.556,188.562 53.303,188.658 53.148 C 188.869 52.806,189.497 52.775,189.695 53.095 M187.236 53.914 C 186.934 54.477,186.458 54.383,186.458 53.761 C 186.458 53.554,186.697 53.385,186.988 53.385 C 187.440 53.385,187.477 53.463,187.236 53.914 M204.819 62.377 C 213.588 64.919,217.389 73.889,215.258 87.016 C 214.442 92.043,210.764 97.421,209.613 95.271 C 207.625 91.556,202.221 89.719,199.846 91.950 L 199.252 92.507 198.493 91.966 C 195.356 89.733,189.209 91.942,188.408 95.590 C 188.172 96.663,187.007 96.140,185.105 94.109 C 181.781 90.560,181.269 74.673,184.275 68.320 C 187.071 62.409,196.008 59.824,204.819 62.377 M203.125 72.993 C 201.500 73.349,201.175 73.942,202.026 74.994 C 202.507 75.588,202.550 75.593,205.358 75.333 C 208.673 75.026,210.856 75.230,212.621 76.011 C 214.274 76.742,214.338 76.590,212.991 75.128 C 210.900 72.860,207.292 72.079,203.125 72.993 M188.889 73.149 C 187.596 73.484,185.791 74.647,184.915 75.710 C 183.779 77.088,183.862 77.483,185.151 76.826 C 187.085 75.839,189.453 75.452,192.641 75.601 C 195.810 75.750,196.365 75.571,196.740 74.284 C 197.036 73.264,191.524 72.467,188.889 73.149 M181.238 81.706 C 181.239 83.962,181.348 86.452,181.479 87.240 C 181.771 88.987,181.744 89.025,180.912 88.036 C 179.305 86.126,178.416 81.670,179.295 79.931 C 179.682 79.165,180.934 77.604,181.161 77.604 C 181.202 77.604,181.237 79.450,181.238 81.706 M197.138 79.861 C 197.141 83.411,197.716 87.760,198.182 87.760 C 198.750 87.760,198.043 78.120,197.461 77.928 C 197.219 77.849,197.136 78.345,197.138 79.861 M218.833 79.167 C 219.812 81.052,218.919 85.252,217.075 87.435 C 216.048 88.650,215.924 88.502,216.300 86.513 C 216.484 85.540,216.693 83.343,216.764 81.630 C 216.835 79.917,216.901 78.420,216.910 78.303 C 216.960 77.676,218.393 78.319,218.833 79.167 M203.189 79.232 C 204.084 81.948,210.338 82.281,211.920 79.696 C 212.466 78.804,211.610 78.730,210.405 79.565 C 208.795 80.681,207.217 80.727,205.064 79.719 C 203.097 78.799,203.041 78.784,203.189 79.232 M186.198 79.674 C 186.198 80.027,187.750 81.163,188.873 81.633 C 190.830 82.450,193.579 81.821,194.794 80.276 C 195.539 79.329,195.303 79.291,193.711 80.101 C 191.829 81.060,189.988 81.065,187.996 80.119 C 186.393 79.358,186.198 79.310,186.198 79.674 M204.277 96.121 C 204.839 96.321,205.342 96.616,205.395 96.777 C 205.625 97.481,200.526 98.824,198.559 98.578 C 196.646 98.339,192.969 97.127,192.969 96.735 C 192.969 95.780,201.949 95.293,204.277 96.121 M220.589 113.184 C 223.735 114.705,234.104 118.591,236.198 119.035 C 242.403 120.350,246.275 124.844,248.796 133.656 C 251.198 142.055,252.433 146.611,252.325 146.677 C 252.264 146.715,251.825 147.019,251.351 147.351 C 250.617 147.866,250.371 147.915,249.701 147.682 C 248.878 147.395,247.401 147.797,247.021 148.412 C 246.892 148.621,246.698 148.621,246.311 148.414 C 245.595 148.031,244.108 148.340,243.672 148.963 C 243.368 149.397,243.211 149.427,242.551 149.178 C 241.900 148.932,241.606 148.981,240.618 149.499 C 239.763 149.947,239.122 150.088,238.207 150.030 C 237.496 149.985,236.798 150.087,236.580 150.268 C 236.077 150.685,236.080 150.584,236.718 146.295 C 237.531 140.824,238.072 135.139,237.902 133.854 C 237.817 133.210,237.575 131.628,237.366 130.339 C 237.156 129.049,236.895 127.200,236.787 126.228 C 236.556 124.174,236.164 123.940,235.840 125.661 C 235.673 126.545,235.764 127.914,236.177 130.763 C 236.750 134.708,236.749 135.123,236.167 140.365 C 235.826 143.440,234.682 152.246,234.509 153.125 C 233.707 157.216,233.052 165.456,233.105 170.796 L 233.163 176.618 229.667 178.709 C 225.660 181.106,221.247 183.281,218.656 184.136 L 216.869 184.725 214.880 184.225 C 211.799 183.449,208.441 183.568,204.507 184.591 C 202.281 185.170,200.725 185.419,199.299 185.423 C 198.181 185.427,196.765 185.545,196.154 185.686 C 194.729 186.015,193.441 185.707,189.714 184.146 L 186.849 182.947 182.591 182.889 C 177.670 182.821,177.497 182.775,171.810 180.007 C 167.695 178.005,167.812 178.147,169.589 177.323 C 179.444 172.755,195.598 153.984,203.648 137.748 C 204.526 135.977,204.955 135.405,205.744 134.950 C 209.509 132.784,211.542 129.491,211.636 125.409 L 211.696 122.786 213.075 121.758 C 216.281 119.366,218.504 116.273,218.896 113.658 C 218.991 113.021,219.093 112.500,219.121 112.500 C 219.150 112.500,219.811 112.808,220.589 113.184 M177.446 117.655 C 177.683 118.112,178.627 119.347,179.545 120.399 L 181.213 122.313 180.949 123.461 C 179.666 129.027,182.914 135.129,188.821 138.253 C 189.857 138.801,190.034 139.024,190.293 140.117 C 190.823 142.346,191.981 143.709,195.839 146.643 L 196.732 147.323 195.984 148.466 C 195.573 149.095,194.550 150.565,193.712 151.732 L 192.189 153.855 191.275 152.942 C 190.586 152.253,190.214 152.065,189.766 152.177 C 189.281 152.299,189.116 152.182,188.878 151.552 C 188.671 151.004,188.359 150.732,187.816 150.623 C 187.273 150.514,186.878 150.170,186.476 149.454 C 186.140 148.857,185.643 148.374,185.268 148.279 C 184.887 148.184,184.568 147.869,184.475 147.496 C 184.389 147.154,183.950 146.572,183.500 146.204 C 183.050 145.835,182.448 145.103,182.161 144.577 C 181.875 144.050,181.263 143.444,180.800 143.229 C 180.108 142.908,179.958 142.689,179.954 141.992 C 179.950 141.468,179.725 140.923,179.363 140.561 C 179.042 140.240,178.761 139.629,178.740 139.205 C 178.716 138.725,178.439 138.206,178.007 137.835 C 177.626 137.507,177.390 137.115,177.483 136.964 C 177.728 136.568,177.416 135.526,176.897 135.007 C 176.608 134.718,176.479 134.247,176.529 133.667 C 176.579 133.086,176.443 132.591,176.142 132.259 C 175.818 131.901,175.699 131.409,175.746 130.632 C 175.791 129.903,175.684 129.410,175.434 129.202 C 175.167 128.981,175.094 128.578,175.190 127.860 C 175.280 127.192,175.194 126.628,174.945 126.242 C 174.709 125.878,174.607 125.275,174.680 124.671 C 174.744 124.132,174.665 123.531,174.502 123.335 C 174.301 123.093,174.287 122.772,174.456 122.325 C 174.709 121.660,174.585 120.676,174.182 120.156 C 174.052 119.989,174.134 119.520,174.380 119.027 C 174.765 118.254,174.766 118.095,174.387 117.131 C 173.977 116.087,173.980 116.074,174.667 115.526 C 176.251 114.263,176.137 114.259,176.594 115.592 C 176.826 116.270,177.210 117.198,177.446 117.655 M170.751 117.665 C 170.666 118.090,170.766 118.718,170.986 119.142 C 171.249 119.648,171.285 119.965,171.101 120.149 C 170.710 120.540,170.774 122.215,171.202 122.801 C 171.461 123.155,171.491 123.403,171.303 123.630 C 171.152 123.811,171.111 124.326,171.209 124.802 C 171.305 125.269,171.373 126.132,171.361 126.719 C 171.346 127.414,171.515 128.005,171.843 128.410 C 172.222 128.878,172.283 129.152,172.089 129.514 C 171.809 130.037,172.002 131.167,172.467 131.727 C 172.627 131.919,172.767 132.610,172.779 133.264 C 172.796 134.170,172.933 134.539,173.353 134.818 C 173.802 135.116,173.880 135.368,173.773 136.170 C 173.662 136.996,173.745 137.239,174.283 137.662 C 174.791 138.061,174.901 138.342,174.806 138.990 C 174.712 139.632,174.839 139.966,175.384 140.511 C 175.900 141.028,176.041 141.372,175.925 141.834 C 175.756 142.510,176.727 143.750,177.426 143.750 C 177.678 143.750,177.753 143.957,177.666 144.410 C 177.519 145.178,178.216 146.094,178.947 146.094 C 179.302 146.094,179.427 146.288,179.427 146.843 C 179.427 147.653,179.779 148.066,180.599 148.217 C 180.968 148.285,181.158 148.577,181.250 149.222 C 181.359 149.985,181.526 150.177,182.292 150.423 C 182.896 150.618,183.231 150.901,183.286 151.264 C 183.375 151.860,184.490 152.865,185.061 152.865 C 185.257 152.865,185.417 153.002,185.417 153.170 C 185.417 153.794,186.290 154.427,187.150 154.427 C 187.731 154.427,188.021 154.551,188.021 154.799 C 188.021 155.411,188.789 155.990,189.602 155.990 C 190.587 155.990,190.582 156.012,189.148 157.902 C 184.414 164.141,178.015 170.465,172.681 174.178 C 170.273 175.854,170.442 175.898,170.072 173.503 C 168.988 166.477,163.147 148.038,160.431 143.064 L 159.881 142.057 160.047 142.969 C 160.139 143.470,160.552 144.947,160.966 146.251 C 161.948 149.342,161.965 149.913,161.062 149.321 C 160.603 149.021,160.087 148.934,159.348 149.033 C 158.508 149.146,158.180 149.066,157.760 148.646 C 157.332 148.217,157.004 148.142,156.043 148.250 C 155.112 148.355,154.699 148.269,154.137 147.854 C 153.605 147.460,153.205 147.367,152.584 147.491 C 152.089 147.590,151.601 147.536,151.386 147.357 C 151.187 147.192,150.648 147.067,150.189 147.080 C 149.731 147.093,149.151 146.919,148.901 146.693 C 148.570 146.394,148.145 146.323,147.335 146.431 C 144.788 146.772,144.658 146.068,146.237 140.495 C 146.887 138.203,147.878 134.662,148.440 132.626 C 150.834 123.959,154.279 120.582,161.524 119.802 C 164.087 119.526,168.100 118.386,169.792 117.452 C 170.959 116.808,170.924 116.800,170.751 117.665 M146.238 149.903 C 146.667 150.184,147.185 150.278,147.775 150.182 C 148.389 150.083,148.766 150.159,148.988 150.426 C 149.202 150.684,149.686 150.792,150.424 150.746 C 151.208 150.698,151.693 150.818,152.061 151.151 C 152.476 151.527,152.821 151.589,153.734 151.452 C 154.614 151.320,154.918 151.368,155.028 151.657 C 155.228 152.177,156.622 152.442,157.288 152.086 C 157.738 151.844,157.913 151.885,158.279 152.315 C 158.524 152.603,159.094 152.932,159.547 153.047 L 160.371 153.255 157.527 161.719 C 155.963 166.374,154.633 170.319,154.571 170.487 C 154.488 170.715,154.148 170.698,153.230 170.422 C 151.947 170.036,149.555 169.970,148.438 170.291 C 147.899 170.445,148.027 170.510,149.179 170.668 C 152.756 171.156,156.437 172.812,165.755 178.123 C 174.790 183.273,178.013 184.500,181.398 184.080 C 184.102 183.744,185.950 184.060,189.608 185.484 C 191.242 186.119,192.909 186.720,193.313 186.819 C 193.725 186.920,193.999 187.137,193.937 187.314 C 193.823 187.643,193.347 187.652,192.113 187.352 C 191.126 187.112,190.365 187.818,190.365 188.973 C 190.365 190.016,190.628 190.009,187.109 189.057 C 181.993 187.672,179.507 188.060,179.749 190.205 L 179.869 191.276 176.849 191.239 C 165.848 191.104,144.012 184.557,139.351 179.996 C 136.659 177.362,136.617 177.659,143.432 151.107 C 143.897 149.297,144.753 148.930,146.238 149.903 M252.718 150.781 C 253.692 150.781,253.319 149.794,256.212 160.026 C 261.345 178.176,261.185 177.450,260.418 179.033 C 257.357 185.356,216.957 196.629,197.135 196.691 C 189.559 196.715,175.260 194.113,175.260 192.711 C 175.260 191.772,182.072 192.262,187.419 193.584 C 194.391 195.309,196.546 195.394,201.391 194.140 C 204.097 193.439,204.824 193.001,204.243 192.420 C 203.897 192.074,199.525 193.066,198.356 193.756 C 197.204 194.435,192.776 193.998,186.589 192.594 C 184.440 192.107,182.254 191.637,181.731 191.550 C 180.780 191.392,180.469 191.029,180.469 190.076 C 180.469 188.773,182.623 188.913,189.063 190.636 C 191.416 191.266,192.392 191.409,193.620 191.303 C 194.479 191.229,196.589 191.052,198.307 190.910 C 200.026 190.768,202.546 190.470,203.906 190.249 C 205.267 190.027,206.945 189.845,207.634 189.845 C 209.215 189.843,210.062 189.446,209.620 188.914 C 209.124 188.316,206.665 188.464,200.725 189.449 C 200.099 189.553,199.959 189.436,199.517 188.437 C 198.985 187.234,198.571 186.813,198.319 187.220 C 198.234 187.358,197.611 187.551,196.934 187.651 C 196.257 187.750,195.439 187.930,195.117 188.050 C 194.211 188.388,194.412 187.836,195.378 187.334 C 195.938 187.043,197.236 186.830,199.219 186.705 C 200.966 186.594,203.353 186.230,204.948 185.831 C 208.720 184.888,210.851 184.754,213.411 185.296 C 216.913 186.038,217.053 186.038,219.335 185.283 C 222.876 184.111,226.068 182.411,235.845 176.490 C 243.347 171.947,246.878 170.383,249.854 170.287 C 250.629 170.261,250.633 170.255,250.000 170.052 C 248.759 169.655,246.751 169.803,244.922 170.427 C 243.919 170.769,243.076 171.026,243.049 170.999 C 242.870 170.825,238.134 157.489,237.371 155.013 L 237.030 153.906 237.876 153.906 C 238.392 153.906,238.906 153.702,239.196 153.382 C 239.595 152.941,239.869 152.885,240.924 153.025 C 241.914 153.156,242.330 153.088,242.899 152.702 C 243.373 152.381,244.081 152.213,244.967 152.212 C 245.996 152.211,246.459 152.076,246.924 151.638 C 247.359 151.230,247.645 151.136,247.921 151.310 C 248.547 151.706,249.554 151.596,250.391 151.040 C 250.820 150.755,251.328 150.580,251.519 150.651 C 251.709 150.723,252.249 150.781,252.718 150.781 M266.536 178.310 C 281.114 183.348,285.232 195.934,274.615 202.999 C 265.412 209.122,245.221 213.050,224.870 212.677 C 216.920 212.531,213.577 212.309,201.137 211.098 L 194.852 210.486 188.211 211.211 C 174.734 212.684,160.857 212.949,154.167 211.861 C 148.154 210.884,137.736 208.801,135.156 208.060 C 115.249 202.344,114.009 184.615,133.080 178.383 C 136.010 177.426,136.085 177.425,136.410 178.360 C 138.162 183.385,153.114 189.157,172.535 192.304 C 173.264 192.423,173.663 192.649,173.837 193.043 C 174.176 193.809,176.835 194.881,181.089 195.969 C 194.625 199.429,209.490 198.302,232.935 192.039 C 253.247 186.612,262.191 182.219,262.234 177.649 C 262.241 176.906,262.658 176.970,266.536 178.310 M192.880 188.144 C 193.928 188.878,193.825 190.104,192.715 190.104 C 191.646 190.104,191.146 189.731,191.146 188.932 C 191.146 187.856,191.948 187.491,192.880 188.144 M198.795 188.860 C 199.253 189.589,198.692 189.859,196.591 189.919 C 194.795 189.970,194.656 189.935,194.582 189.415 C 194.428 188.335,198.158 187.844,198.795 188.860 " stroke="none" fill="#16110f" fill-rule="evenodd"></path><path id="path2" d="M0.000 133.333 L 0.000 266.667 200.000 266.667 L 400.000 266.667 400.000 133.333 L 400.000 0.000 200.000 0.000 L 0.000 0.000 0.000 133.333 M204.056 35.441 C 237.989 38.842,255.112 80.805,232.913 106.160 C 231.176 108.144,231.151 107.929,233.336 109.749 C 235.544 111.589,237.059 113.778,237.790 116.185 L 238.335 117.979 240.210 118.894 C 246.163 121.797,248.087 125.301,252.354 141.016 C 253.530 145.347,254.156 147.216,254.615 147.766 C 255.119 148.370,255.216 148.706,255.086 149.396 C 254.963 150.057,255.579 152.573,257.643 159.834 C 259.139 165.096,260.742 170.766,261.206 172.435 L 262.049 175.470 264.540 176.176 C 284.190 181.753,290.786 199.670,277.027 210.094 C 268.128 216.836,247.312 218.906,210.156 216.745 C 200.245 216.168,186.390 216.179,179.948 216.768 C 161.169 218.487,136.477 216.656,127.782 212.901 C 109.043 204.807,112.333 183.171,133.268 176.830 C 135.892 176.036,136.198 175.881,136.198 175.346 C 136.198 173.982,139.948 158.286,142.141 150.472 C 142.425 149.457,142.539 148.588,142.412 148.389 C 142.035 147.794,142.168 147.104,142.806 146.346 C 143.154 145.931,143.626 144.778,143.887 143.704 C 148.242 125.739,151.267 120.535,158.400 118.739 C 159.551 118.449,159.634 118.366,160.051 117.094 C 161.258 113.407,162.742 111.479,166.252 109.036 C 169.220 106.971,169.351 106.764,168.266 105.851 C 167.804 105.461,166.686 104.191,165.784 103.027 C 142.629 73.177,166.150 31.642,204.056 35.441 " stroke="none" fill="#fbfbfb" fill-rule="evenodd"></path><path id="path3" d="M194.544 35.439 C 161.490 38.622,145.313 76.638,165.784 103.027 C 169.075 107.270,169.690 107.331,168.749 103.323 C 167.974 100.021,168.114 99.397,170.772 94.275 L 173.004 89.974 172.949 86.297 C 172.885 82.106,173.408 78.892,174.751 75.207 C 175.396 73.437,175.582 72.402,175.782 69.475 C 176.350 61.168,178.236 57.769,184.035 54.602 C 185.535 53.783,185.547 53.766,185.614 52.502 C 185.701 50.836,187.890 46.793,189.731 44.899 C 191.140 43.449,192.017 43.071,194.531 42.828 C 195.319 42.752,196.575 42.559,197.322 42.399 C 203.169 41.149,209.836 46.553,209.900 52.594 C 209.903 52.826,210.586 53.322,211.528 53.775 C 216.658 56.242,220.389 62.909,222.780 73.879 C 223.148 75.570,223.796 78.237,224.218 79.806 C 224.640 81.375,225.114 83.836,225.270 85.275 C 225.786 90.016,225.938 90.373,229.049 94.167 C 232.103 97.890,232.746 100.344,231.904 105.068 C 231.445 107.646,231.540 107.739,232.970 106.120 C 241.790 96.130,245.136 80.446,241.283 67.155 C 235.238 46.306,216.157 33.358,194.544 35.439 M192.448 62.123 C 185.649 63.997,183.391 67.501,182.527 77.516 C 181.716 86.930,183.287 93.146,187.145 95.788 L 187.963 96.348 188.667 94.909 C 190.391 91.384,195.303 89.775,198.245 91.772 C 199.107 92.357,199.141 92.359,199.719 91.892 C 201.232 90.666,204.395 90.620,206.397 91.793 C 207.474 92.424,209.635 94.789,209.635 95.336 C 209.635 96.180,212.099 94.570,213.141 93.044 C 216.299 88.420,216.438 74.116,213.375 68.827 C 211.631 65.814,208.337 63.390,204.557 62.336 C 202.324 61.714,194.437 61.575,192.448 62.123 M200.124 69.364 C 201.232 70.174,200.348 72.396,198.918 72.396 C 198.280 72.396,197.135 71.270,197.135 70.643 C 197.135 69.262,198.933 68.493,200.124 69.364 M210.346 73.055 C 211.608 73.582,212.847 74.546,213.701 75.666 C 214.625 76.878,214.431 76.963,212.627 76.137 C 210.805 75.303,207.306 75.023,204.594 75.495 C 203.428 75.698,202.702 75.713,202.377 75.539 C 201.770 75.214,201.139 73.757,201.464 73.432 C 202.254 72.642,208.703 72.368,210.346 73.055 M195.833 73.257 C 196.933 73.632,197.143 74.417,196.338 75.145 C 195.841 75.593,195.359 75.654,192.095 75.673 C 188.441 75.695,185.241 76.314,184.761 77.090 C 184.478 77.548,183.859 77.377,184.029 76.888 C 184.452 75.677,186.890 73.662,188.540 73.160 C 189.576 72.845,194.830 72.915,195.833 73.257 M197.770 77.838 C 197.994 78.200,198.732 87.495,198.559 87.774 C 198.253 88.269,197.931 87.999,197.688 87.044 C 197.354 85.736,196.790 78.212,197.000 77.873 C 197.205 77.542,197.577 77.525,197.770 77.838 M180.115 78.751 C 178.621 80.710,178.619 83.160,180.108 86.478 C 181.177 88.861,181.597 89.026,181.333 86.961 C 181.216 86.040,181.120 83.617,181.120 81.576 C 181.120 77.517,181.099 77.460,180.115 78.751 M217.101 78.299 C 217.005 78.394,216.926 79.361,216.925 80.447 C 216.923 82.343,216.619 85.583,216.262 87.500 L 216.093 88.411 216.785 87.630 C 218.489 85.708,219.620 81.879,219.048 79.969 C 218.606 78.496,217.690 77.710,217.101 78.299 M204.906 79.536 C 207.179 80.688,209.611 80.581,210.688 79.283 C 211.055 78.841,211.874 78.785,212.121 79.186 C 212.370 79.589,211.239 80.719,210.026 81.279 C 208.147 82.146,206.243 81.827,204.054 80.279 C 202.095 78.894,202.663 78.399,204.906 79.536 M195.313 79.537 C 195.313 80.162,193.266 81.700,192.015 82.015 C 190.365 82.430,188.472 81.858,186.952 80.483 C 185.616 79.275,185.942 79.163,188.151 80.073 C 190.266 80.944,191.732 80.920,193.508 79.985 C 195.208 79.089,195.313 79.064,195.313 79.537 M175.161 115.254 C 174.194 116.092,174.164 116.166,174.475 116.916 C 174.662 117.369,174.727 118.061,174.629 118.551 C 174.426 119.561,174.426 119.847,174.632 121.259 C 174.728 121.920,174.679 122.402,174.505 122.510 C 174.307 122.632,174.345 122.926,174.627 123.471 C 174.870 123.941,174.970 124.543,174.876 124.970 C 174.783 125.396,174.882 125.991,175.122 126.448 C 175.363 126.907,175.462 127.505,175.369 127.940 C 175.270 128.408,175.371 128.906,175.653 129.337 C 175.929 129.757,176.045 130.311,175.966 130.824 C 175.885 131.350,175.987 131.807,176.253 132.108 C 176.479 132.366,176.676 133.033,176.690 133.591 C 176.704 134.151,176.915 134.827,177.160 135.097 C 177.404 135.367,177.604 135.954,177.604 136.402 C 177.604 136.928,177.840 137.452,178.272 137.884 C 178.727 138.338,178.914 138.773,178.858 139.246 C 178.801 139.728,178.994 140.157,179.492 140.653 C 179.900 141.059,180.208 141.652,180.208 142.031 C 180.208 142.494,180.428 142.808,180.934 143.070 C 181.333 143.276,181.827 143.777,182.032 144.184 C 182.238 144.590,182.907 145.418,183.520 146.024 C 184.134 146.631,184.635 147.286,184.635 147.480 C 184.635 147.674,184.929 147.967,185.287 148.130 C 185.645 148.293,186.159 148.789,186.428 149.231 C 186.697 149.673,187.312 150.232,187.794 150.473 C 188.277 150.714,188.788 151.175,188.929 151.497 C 189.109 151.909,189.408 152.083,189.931 152.083 C 190.425 152.083,190.925 152.349,191.412 152.871 L 192.148 153.658 193.295 152.155 C 194.757 150.238,196.688 147.374,196.573 147.294 C 192.767 144.639,190.104 141.534,190.104 139.752 C 190.104 139.251,189.743 138.907,188.346 138.074 C 182.763 134.746,180.596 131.065,180.803 125.260 L 180.918 122.005 179.528 120.500 C 177.882 118.717,176.877 117.080,176.469 115.515 L 176.172 114.377 175.161 115.254 M169.744 117.588 C 168.127 118.466,164.120 119.581,161.345 119.925 C 153.238 120.931,151.013 123.652,147.274 137.133 C 144.891 145.723,144.868 145.833,145.411 145.833 C 145.608 145.833,145.910 146.003,146.082 146.209 C 146.328 146.506,146.528 146.524,147.032 146.295 C 147.544 146.061,147.861 146.098,148.640 146.483 C 149.173 146.747,149.867 146.936,150.181 146.902 C 150.496 146.869,151.023 146.988,151.353 147.166 C 151.683 147.345,152.370 147.462,152.881 147.427 C 153.488 147.385,154.025 147.539,154.436 147.872 C 154.877 148.228,155.226 148.319,155.605 148.175 C 156.346 147.893,157.435 148.136,157.942 148.697 C 158.297 149.090,158.485 149.116,159.143 148.868 C 159.785 148.626,160.064 148.655,160.726 149.035 C 161.852 149.681,161.877 149.528,161.067 146.950 C 159.364 141.535,159.398 140.369,161.142 144.342 C 164.866 152.822,169.224 166.840,170.098 173.150 C 170.269 174.382,170.439 175.433,170.476 175.484 C 170.595 175.650,174.802 172.587,177.083 170.674 C 180.486 167.820,185.691 162.254,189.267 157.645 C 190.288 156.328,190.288 156.352,189.313 156.157 C 188.804 156.055,188.364 155.720,188.076 155.215 C 187.722 154.592,187.453 154.430,186.772 154.429 C 186.092 154.427,185.821 154.265,185.470 153.647 C 185.226 153.219,184.874 152.867,184.689 152.866 C 184.153 152.864,183.011 151.579,183.172 151.160 C 183.269 150.906,183.145 150.781,182.792 150.781 C 182.112 150.781,180.990 149.654,180.990 148.970 C 180.990 148.677,180.834 148.438,180.644 148.438 C 180.114 148.438,179.167 147.300,179.167 146.663 C 179.167 146.270,179.008 146.094,178.653 146.094 C 178.069 146.094,177.266 144.776,177.491 144.189 C 177.586 143.943,177.409 143.758,176.976 143.649 C 176.213 143.457,175.713 142.671,175.830 141.849 C 175.880 141.497,175.686 141.093,175.326 140.801 C 174.898 140.455,174.740 140.051,174.740 139.304 C 174.740 138.619,174.563 138.104,174.204 137.746 C 173.817 137.358,173.690 136.946,173.748 136.257 C 173.808 135.539,173.680 135.157,173.227 134.706 C 172.770 134.251,172.645 133.874,172.706 133.134 C 172.762 132.452,172.641 132.016,172.300 131.675 C 171.929 131.304,171.843 130.930,171.938 130.091 C 172.018 129.381,171.932 128.817,171.694 128.494 C 171.489 128.216,171.353 127.533,171.387 126.953 C 171.420 126.380,171.300 125.639,171.121 125.307 C 170.880 124.859,170.866 124.499,171.071 123.913 C 171.286 123.296,171.261 123.003,170.959 122.571 C 170.475 121.880,170.466 121.079,170.934 120.439 C 171.244 120.015,171.240 119.859,170.905 119.348 C 170.684 119.010,170.564 118.411,170.628 117.969 C 170.758 117.084,170.710 117.063,169.744 117.588 M235.938 119.381 C 235.938 119.559,236.048 120.340,236.183 121.115 C 236.318 121.891,236.560 123.581,236.720 124.870 C 236.880 126.159,237.254 128.737,237.550 130.599 C 238.257 135.045,238.154 136.975,236.639 147.708 C 236.291 150.171,236.294 150.227,236.780 149.967 C 237.054 149.820,237.727 149.776,238.275 149.869 C 239.025 149.996,239.543 149.898,240.376 149.474 C 241.115 149.096,241.791 148.947,242.420 149.021 C 243.077 149.099,243.568 148.980,244.052 148.624 C 244.549 148.258,245.024 148.147,245.741 148.231 C 246.428 148.311,247.005 148.190,247.599 147.839 C 248.224 147.470,248.722 147.374,249.419 147.487 C 250.589 147.677,252.378 146.955,252.224 146.354 C 251.946 145.267,249.571 136.656,248.669 133.464 C 246.709 126.524,244.032 122.615,239.714 120.385 C 237.954 119.477,235.938 118.941,235.938 119.381 M144.531 149.660 C 143.785 149.778,144.073 148.820,140.513 163.021 C 136.949 177.240,136.929 177.542,139.411 179.985 C 143.855 184.360,164.586 190.619,176.135 191.073 L 179.744 191.214 179.568 190.414 C 179.027 187.951,181.379 187.463,186.905 188.894 L 190.278 189.767 190.161 189.155 C 189.872 187.646,191.223 186.919,193.197 187.521 C 194.596 187.948,193.342 186.960,191.730 186.366 C 185.017 183.893,185.618 184.026,181.982 184.209 C 177.392 184.440,174.981 183.506,163.932 177.212 C 156.005 172.697,153.184 171.451,149.479 170.830 C 145.819 170.217,149.419 169.839,153.869 170.370 C 154.454 170.439,154.616 170.043,157.317 161.979 C 160.548 152.332,160.353 153.125,159.505 153.125 C 159.147 153.125,158.646 152.917,158.392 152.663 C 158.051 152.321,157.623 152.225,156.759 152.294 C 155.853 152.366,155.485 152.273,155.133 151.883 C 154.767 151.479,154.431 151.403,153.435 151.499 C 152.525 151.586,152.105 151.511,151.862 151.219 C 151.634 150.944,151.261 150.863,150.671 150.959 C 150.180 151.038,149.544 150.950,149.189 150.752 C 148.847 150.561,148.078 150.399,147.480 150.391 C 146.834 150.382,146.192 150.194,145.897 149.928 C 145.625 149.681,145.352 149.497,145.292 149.518 C 145.232 149.540,144.889 149.604,144.531 149.660 M250.499 151.199 C 250.219 151.535,249.833 151.596,248.657 151.489 C 247.400 151.376,247.096 151.435,246.703 151.869 C 246.344 152.266,245.969 152.365,245.059 152.304 C 244.249 152.249,243.661 152.372,243.179 152.695 C 242.691 153.022,242.089 153.145,241.198 153.097 C 240.195 153.044,239.755 153.157,239.170 153.617 C 238.718 153.973,238.189 154.160,237.831 154.092 C 237.506 154.029,237.240 154.056,237.240 154.150 C 237.240 154.555,242.857 170.548,243.076 170.767 C 243.127 170.818,243.881 170.619,244.753 170.326 C 246.364 169.783,249.798 169.588,250.450 170.003 C 250.636 170.121,249.764 170.393,248.367 170.653 C 245.336 171.216,242.500 172.565,235.677 176.690 C 225.526 182.826,222.953 184.197,219.281 185.427 L 216.975 186.200 214.673 185.652 C 211.701 184.945,208.309 185.063,204.297 186.013 C 202.721 186.386,200.869 186.764,200.180 186.853 C 199.491 186.943,198.970 187.095,199.022 187.193 C 199.074 187.290,199.322 187.823,199.575 188.378 C 200.102 189.536,199.784 189.520,205.469 188.680 C 208.740 188.197,210.017 188.366,209.847 189.259 C 209.783 189.598,209.463 189.732,208.592 189.784 C 207.948 189.823,206.191 190.036,204.688 190.258 C 201.997 190.654,198.133 191.028,193.723 191.319 C 191.678 191.453,191.176 191.381,187.993 190.489 C 183.877 189.335,180.833 189.010,180.570 189.694 C 180.154 190.780,180.784 191.223,183.614 191.837 C 194.031 194.095,197.156 194.447,198.698 193.539 C 200.098 192.714,204.120 191.951,204.430 192.452 C 204.830 193.099,204.170 193.460,201.024 194.313 C 196.520 195.535,194.562 195.432,186.979 193.572 C 183.800 192.792,182.596 192.625,179.362 192.514 C 174.916 192.363,174.511 192.599,177.539 193.579 C 192.295 198.356,207.344 197.519,233.464 190.466 C 249.303 186.190,258.705 182.226,260.293 179.153 C 260.976 177.833,260.699 175.939,258.979 170.182 C 258.636 169.036,257.284 164.290,255.975 159.635 C 254.665 154.980,253.576 151.158,253.554 151.142 C 253.118 150.806,250.789 150.849,250.499 151.199 M195.370 187.412 C 194.315 187.932,194.468 188.185,195.598 187.791 C 196.057 187.631,196.825 187.500,197.304 187.500 C 197.784 187.500,198.177 187.383,198.177 187.240 C 198.177 186.832,196.316 186.946,195.370 187.412 M191.319 188.194 C 190.649 188.865,191.584 190.104,192.759 190.104 C 193.515 190.104,193.546 190.063,193.388 189.271 C 193.171 188.184,191.960 187.554,191.319 188.194 M195.378 188.573 C 194.527 188.818,194.353 189.160,194.758 189.797 C 194.966 190.126,198.504 189.864,198.875 189.493 C 199.741 188.627,197.360 188.000,195.378 188.573 " stroke="none" fill="#eb9d45" fill-rule="evenodd"></path><path id="path4" d="M163.267 111.393 L 162.370 112.370 163.346 111.472 C 164.255 110.637,164.443 110.417,164.244 110.417 C 164.200 110.417,163.761 110.856,163.267 111.393 M244.000 121.680 C 245.079 122.829,245.313 123.036,245.313 122.841 C 245.313 122.799,244.756 122.242,244.076 121.604 L 242.839 120.443 244.000 121.680 M115.439 196.484 C 115.441 197.201,115.492 197.463,115.551 197.067 C 115.611 196.671,115.610 196.085,115.548 195.765 C 115.486 195.444,115.437 195.768,115.439 196.484 M186.784 216.332 C 187.178 216.392,187.822 216.392,188.216 216.332 C 188.610 216.273,188.288 216.224,187.500 216.224 C 186.712 216.224,186.390 216.273,186.784 216.332 M199.940 216.335 C 200.408 216.393,201.111 216.391,201.502 216.332 C 201.893 216.272,201.510 216.225,200.651 216.227 C 199.792 216.228,199.471 216.277,199.940 216.335 M145.638 216.586 C 145.889 216.651,146.299 216.651,146.549 216.586 C 146.800 216.520,146.595 216.467,146.094 216.467 C 145.592 216.467,145.387 216.520,145.638 216.586 M181.836 216.586 C 182.087 216.651,182.497 216.651,182.747 216.586 C 182.998 216.520,182.793 216.467,182.292 216.467 C 181.790 216.467,181.585 216.520,181.836 216.586 M205.924 216.590 C 206.247 216.652,206.774 216.652,207.096 216.590 C 207.419 216.528,207.155 216.477,206.510 216.477 C 205.866 216.477,205.602 216.528,205.924 216.590 M149.417 216.851 C 149.741 216.913,150.210 216.911,150.459 216.846 C 150.708 216.780,150.443 216.729,149.870 216.732 C 149.297 216.735,149.093 216.789,149.417 216.851 M178.584 216.851 C 178.908 216.913,179.376 216.911,179.625 216.846 C 179.874 216.780,179.609 216.729,179.036 216.732 C 178.464 216.735,178.260 216.789,178.584 216.851 M210.482 216.846 C 210.732 216.912,211.143 216.912,211.393 216.846 C 211.644 216.781,211.439 216.727,210.938 216.727 C 210.436 216.727,210.231 216.781,210.482 216.846 M251.888 216.846 C 252.139 216.912,252.549 216.912,252.799 216.846 C 253.050 216.781,252.845 216.727,252.344 216.727 C 251.842 216.727,251.637 216.781,251.888 216.846 M154.496 217.114 C 154.892 217.174,155.478 217.172,155.798 217.110 C 156.118 217.049,155.794 217.000,155.078 217.002 C 154.362 217.004,154.100 217.054,154.496 217.114 M175.198 217.111 C 175.522 217.174,175.991 217.171,176.240 217.106 C 176.489 217.041,176.224 216.990,175.651 216.993 C 175.078 216.996,174.874 217.049,175.198 217.111 M215.954 217.114 C 216.350 217.174,216.936 217.172,217.256 217.110 C 217.576 217.049,217.253 217.000,216.536 217.002 C 215.820 217.004,215.558 217.054,215.954 217.114 M247.721 217.114 C 248.115 217.173,248.760 217.173,249.154 217.114 C 249.548 217.054,249.225 217.005,248.438 217.005 C 247.650 217.005,247.327 217.054,247.721 217.114 M162.971 217.382 C 164.733 217.427,167.546 217.427,169.221 217.382 C 170.895 217.337,169.453 217.300,166.016 217.300 C 162.578 217.300,161.208 217.337,162.971 217.382 M221.544 217.375 C 222.006 217.433,222.826 217.434,223.367 217.378 C 223.907 217.321,223.529 217.274,222.526 217.273 C 221.523 217.272,221.081 217.318,221.544 217.375 M242.637 217.375 C 243.100 217.433,243.920 217.434,244.460 217.378 C 245.001 217.321,244.622 217.274,243.620 217.273 C 242.617 217.272,242.175 217.318,242.637 217.375 M229.102 217.642 C 230.283 217.690,232.217 217.690,233.398 217.642 C 234.580 217.593,233.613 217.554,231.250 217.554 C 228.887 217.554,227.920 217.593,229.102 217.642 " stroke="none" fill="#959696" fill-rule="evenodd"></path></g></svg>